# xmcd
#
# Track frame offsets:
#	150
#	16733
#	25225
#	35290
#	54562
#	74693
#	91904
#	111120
#	119371
#	126334
#	152702
#	174332
#	188737
#	197241
#	203964
#
# Disc length: 2834 seconds
# Revision: 0
# Processed by: cddbd v1.5.2PL0 Copyright (c) Steve Scherf et al.
# Submitted via: dBpowerAMP V12.0
#
DISCID=cc0b100f
DTITLE=Hale Dwoskin - Absolute Freedom CD 06 - Beyond Everything and Nothing
DYEAR=2005
DGENRE=Speech
TTITLE0=Introduction
TTITLE1=Welcoming What Is
TTITLE2=What Is Everything - Nothing
TTITLE3=Being Closed - Being Open to Everything - Nothing
TTITLE4=Being Separate from - Being One with Everything - Nothing
TTITLE5=Everything - Nothing Is Real - True
TTITLE6=Everything - Nothing Is Here - Now - Take a Break
TTITLE7=Welcome Back
TTITLE8=Everything Is Me - Nothing Is Me
TTITLE9=I See - Hear - Feel - Am Everything - Nothing
TTITLE10=Change and Changelessness
TTITLE11=What Flows from Everything to Nothing - Beginning and End
TTITLE12=What Surrounds and Interpenetrates Everything and Nothing
TTITLE13=Nothing Is Everything
TTITLE14=And Could You Just Rest
EXTD=
EXTT0=
EXTT1=
EXTT2=
EXTT3=
EXTT4=
EXTT5=
EXTT6=
EXTT7=
EXTT8=
EXTT9=
EXTT10=
EXTT11=
EXTT12=
EXTT13=
EXTT14=
PLAYORDER=
